HIERARCHY
ROOT Hips
{
	OFFSET -14.64140 90.27770 -84.91600
	CHANNELS 6 Xposition Yposition Zposition Zrotation Xrotation Yrotation
	JOINT Spine
	{
		OFFSET 0.00000 13.20850 -1.60436
		CHANNELS 3 Zrotation Xrotation Yrotation
		JOINT Spine1
		{
			OFFSET 0.00000 8.61716 0.00000
			CHANNELS 3 Zrotation Xrotation Yrotation
			JOINT Spine2
			{
				OFFSET 0.00000 8.61717 0.00000
				CHANNELS 3 Zrotation Xrotation Yrotation
				JOINT Spine3
				{
					OFFSET 0.00000 8.61717 0.00000
					CHANNELS 3 Zrotation Xrotation Yrotation
					JOINT Neck
					{
						OFFSET 0.00000 11.07920 1.10792
						CHANNELS 3 Zrotation Xrotation Yrotation
						JOINT Neck1
						{
							OFFSET 0.00000 7.08032 0.00000
							CHANNELS 3 Zrotation Xrotation Yrotation
							JOINT Head
							{
								OFFSET 0.00000 7.08031 0.00000
								CHANNELS 3 Zrotation Xrotation Yrotation
								End site
								{
									OFFSET 0.00000 0.00000 0.00000
								}
							}
						}
					}
					JOINT RightShoulder
					{
						OFFSET -0.01000 7.91373 5.19711
						CHANNELS 3 Zrotation Xrotation Yrotation
						JOINT RightArm
						{
							OFFSET -18.41580 0.00000 0.00000
							CHANNELS 3 Zrotation Xrotation Yrotation
							JOINT RightForeArm
							{
								OFFSET -29.11090 0.00000 0.00000
								CHANNELS 3 Zrotation Xrotation Yrotation
								JOINT RightHand
								{
									OFFSET -24.65040 0.00000 0.00000
									CHANNELS 3 Zrotation Xrotation Yrotation
									JOINT RightHandThumb1
									{
										OFFSET -5.35114 -0.85590 3.97906
										CHANNELS 3 Zrotation Xrotation Yrotation
										JOINT RightHandThumb2
										{
											OFFSET -4.52789 0.00000 0.00000
											CHANNELS 3 Zrotation Xrotation Yrotation
											JOINT RightHandThumb3
											{
												OFFSET -2.46976 0.00000 0.00000
												CHANNELS 3 Zrotation Xrotation Yrotation
												End site
												{
													OFFSET 0.00000 0.00000 0.00000
												}
											}
										}
									}
									JOINT RightHandIndex1
									{
										OFFSET -14.26970 0.00000 2.88139
										CHANNELS 3 Zrotation Xrotation Yrotation
										JOINT RightHandIndex2
										{
											OFFSET -5.48836 0.00000 0.00000
											CHANNELS 3 Zrotation Xrotation Yrotation
											JOINT RightHandIndex3
											{
												OFFSET -3.01859 0.00000 0.00000
												CHANNELS 3 Zrotation Xrotation Yrotation
												End site
												{
													OFFSET 0.00000 0.00000 0.00000
												}
											}
										}
									}
									JOINT RightHandMiddle1
									{
										OFFSET -14.26970 0.00000 -0.09147
										CHANNELS 3 Zrotation Xrotation Yrotation
										JOINT RightHandMiddle2
										{
											OFFSET -6.17441 0.00000 0.00000
											CHANNELS 3 Zrotation Xrotation Yrotation
											JOINT RightHandMiddle3
											{
												OFFSET -3.56743 0.00000 0.00000
												CHANNELS 3 Zrotation Xrotation Yrotation
												End site
												{
													OFFSET 0.00000 0.00000 0.00000
												}
											}
										}
									}
									JOINT RightHandRing1
									{
										OFFSET -12.69180 0.00000 -3.06433
										CHANNELS 3 Zrotation Xrotation Yrotation
										JOINT RightHandRing2
										{
											OFFSET -5.62556 0.00000 0.00000
											CHANNELS 3 Zrotation Xrotation Yrotation
											JOINT RightHandRing3
											{
												OFFSET -3.56744 0.00000 0.00000
												CHANNELS 3 Zrotation Xrotation Yrotation
												End site
												{
													OFFSET 0.00000 0.00000 0.00000
												}
											}
										}
									}
									JOINT RightHandPinky1
									{
										OFFSET -11.11390 0.00000 -6.03719
										CHANNELS 3 Zrotation Xrotation Yrotation
										JOINT RightHandPinky2
										{
											OFFSET -4.52789 0.00000 0.00000
											CHANNELS 3 Zrotation Xrotation Yrotation
											JOINT RightHandPinky3
											{
												OFFSET -2.46976 0.00000 0.00000
												CHANNELS 3 Zrotation Xrotation Yrotation
												End site
												{
													OFFSET 0.00000 0.00000 0.00000
												}
											}
										}
									}
								}
							}
						}
					}
					JOINT LeftShoulder
					{
						OFFSET 0.01000 7.91373 5.19711
						CHANNELS 3 Zrotation Xrotation Yrotation
						JOINT LeftArm
						{
							OFFSET 18.41580 0.00000 0.00000
							CHANNELS 3 Zrotation Xrotation Yrotation
							JOINT LeftForeArm
							{
								OFFSET 29.11090 0.00000 0.00000
								CHANNELS 3 Zrotation Xrotation Yrotation
								JOINT LeftHand
								{
									OFFSET 24.65040 0.00000 0.00000
									CHANNELS 3 Zrotation Xrotation Yrotation
									JOINT LeftHandThumb1
									{
										OFFSET 5.35114 -0.85590 3.97906
										CHANNELS 3 Zrotation Xrotation Yrotation
										JOINT LeftHandThumb2
										{
											OFFSET 4.52789 0.00000 0.00000
											CHANNELS 3 Zrotation Xrotation Yrotation
											JOINT LeftHandThumb3
											{
												OFFSET 2.46977 0.00000 0.00000
												CHANNELS 3 Zrotation Xrotation Yrotation
												End site
												{
													OFFSET 0.00000 0.00000 0.00000
												}
											}
										}
									}
									JOINT LeftHandIndex1
									{
										OFFSET 14.26970 0.00000 2.88139
										CHANNELS 3 Zrotation Xrotation Yrotation
										JOINT LeftHandIndex2
										{
											OFFSET 5.48836 0.00000 0.00000
											CHANNELS 3 Zrotation Xrotation Yrotation
											JOINT LeftHandIndex3
											{
												OFFSET 3.01859 0.00000 0.00000
												CHANNELS 3 Zrotation Xrotation Yrotation
												End site
												{
													OFFSET 0.00000 0.00000 0.00000
												}
											}
										}
									}
									JOINT LeftHandMiddle1
									{
										OFFSET 14.26970 0.00000 -0.09147
										CHANNELS 3 Zrotation Xrotation Yrotation
										JOINT LeftHandMiddle2
										{
											OFFSET 6.17440 0.00000 0.00000
											CHANNELS 3 Zrotation Xrotation Yrotation
											JOINT LeftHandMiddle3
											{
												OFFSET 3.56744 0.00000 0.00000
												CHANNELS 3 Zrotation Xrotation Yrotation
												End site
												{
													OFFSET 0.00000 0.00000 0.00000
												}
											}
										}
									}
									JOINT LeftHandRing1
									{
										OFFSET 12.69180 0.00000 -3.06433
										CHANNELS 3 Zrotation Xrotation Yrotation
										JOINT LeftHandRing2
										{
											OFFSET 5.62556 0.00000 0.00000
											CHANNELS 3 Zrotation Xrotation Yrotation
											JOINT LeftHandRing3
											{
												OFFSET 3.56744 0.00000 0.00000
												CHANNELS 3 Zrotation Xrotation Yrotation
												End site
												{
													OFFSET 0.00000 0.00000 0.00000
												}
											}
										}
									}
									JOINT LeftHandPinky1
									{
										OFFSET 11.11390 0.00000 -6.03719
										CHANNELS 3 Zrotation Xrotation Yrotation
										JOINT LeftHandPinky2
										{
											OFFSET 4.52789 0.00000 0.00000
											CHANNELS 3 Zrotation Xrotation Yrotation
											JOINT LeftHandPinky3
											{
												OFFSET 2.46976 0.00000 0.00000
												CHANNELS 3 Zrotation Xrotation Yrotation
												End site
												{
													OFFSET 0.00000 0.00000 0.00000
												}
											}
										}
									}
								}
							}
						}
					}
					JOINT pCube4
					{
						OFFSET 0.00000 10.91090 1.10792
						CHANNELS 3 Zrotation Xrotation Yrotation
						End site
						{
							OFFSET 0.00000 0.00000 0.00000
						}
					}
				}
			}
		}
	}
	JOINT RightUpLeg
	{
		OFFSET -9.98441 0.00000 0.00000
		CHANNELS 3 Zrotation Xrotation Yrotation
		JOINT RightLeg
		{
			OFFSET 0.00000 -42.11790 0.00000
			CHANNELS 3 Zrotation Xrotation Yrotation
			JOINT RightFoot
			{
				OFFSET 0.00000 -45.00020 -0.00001
				CHANNELS 3 Zrotation Xrotation Yrotation
				JOINT RightForeFoot
				{
					OFFSET 0.00000 -3.74820 0.00000
					CHANNELS 3 Zrotation Xrotation Yrotation
					JOINT RightToeBase
					{
						OFFSET 0.00000 0.06325 14.43120
						CHANNELS 3 Zrotation Xrotation Yrotation
						End site
						{
							OFFSET 0.00000 0.00000 0.00000
						}
					}
				}
			}
		}
	}
	JOINT LeftUpLeg
	{
		OFFSET 9.98441 0.00000 0.00000
		CHANNELS 3 Zrotation Xrotation Yrotation
		JOINT LeftLeg
		{
			OFFSET 0.00000 -42.11800 0.00000
			CHANNELS 3 Zrotation Xrotation Yrotation
			JOINT LeftFoot
			{
				OFFSET 0.00000 -45.00070 0.00000
				CHANNELS 3 Zrotation Xrotation Yrotation
				JOINT LeftForeFoot
				{
					OFFSET 0.00000 -3.74824 0.00000
					CHANNELS 3 Zrotation Xrotation Yrotation
					JOINT LeftToeBase
					{
						OFFSET 0.00000 0.06325 14.43110
						CHANNELS 3 Zrotation Xrotation Yrotation
						End site
						{
							OFFSET 0.00000 0.00000 0.00000
						}
					}
				}
			}
		}
	}
}
MOTION
Frames: 4
Frame Time: 0.050000
0.028242753762646056 0.026047568076372936 0.01362639816104077 0.0180713141316045 -0.018768337035962788 0.04316388063358432 1.3502690408463611 4.034417568707815 -1.5927389702105657 -0.5293519392296033 4.074846190675996 0.3353085110220052 -0.5196841610062741 -1.4252363138222532 0.7146572271075038 -1.3145781281218882 -0.7351669538370409 -0.2669295428582696 -1.1461626681279093 12.871793671200901 1.3748702954297214 0.3629344019053515 -2.091605195918641 3.2260118063285486 0.23424176996850837 -19.15667079184559 0.24246892208071716 -4.889061562428664 2.0991571874359956 -16.367999584854026 78.75904788538911 9.48956914318569 -1.6301474424523805 0.5391288070416956 3.2092147532924025 52.82908868926607 25.495327095291188 -0.32897315997676224 -2.70419662764916 4.552794757322882 -0.16545569963123868 -1.5669770598482888 0.005372399161704509 0.004939648460513898 -56.211024769193735 0.042232045242776 0.018187918628195153 -56.24965204724119 -38.81179182532082 0.033552214711181534 -0.049827894187359965 -0.01746886504212067 -0.00910122194287601 -0.03239419722846862 0.04540621155547374 -0.03333289525347545 -0.04391098406742959 -36.661234676584726 -0.0182277875153215 0.016219352684507905 0.037026181737332346 0.006033172755863252 0.04458772918690426 0.04457097372663404 0.0389181820377619 -0.013613407202586412 -19.742710993004746 -0.017351142970870228 -0.02004548688451729 0.01775893891232755 -0.04082312868007031 -0.012289728573424407 -0.022076829971969462 0.014082763643816939 -0.028376545707566748 24.04808254666497 0.03316424843155732 0.011398372734352158 28.847116714015545 0.04140297749412622 0.029062342476891493 28.825002498493916 -0.01575385930950189 -0.029606793598056725 8.194868600292521 2.015773358085717 15.01215933928192 -78.5194278769914 16.28108118308003 -12.038484322944049 -1.2974236004054378 12.081349643509284 -48.20513376421384 -27.255742211937342 8.324351905419919 -3.862812209520481 -0.5030221854925079 0.04206635125459041 -8.075280248118043 0.025449709198205734 0.03317184931411205 44.5640371301795 0.008360716468370954 -0.03178674105696612 44.58757697005447 12.451417664700857 -0.020125919127584463 -0.0019493145658385802 0.03987753029022662 0.007081138158091278 -0.027614211231966626 0.026880778759977454 -0.027740453477645994 0.016504920615689707 11.09718936010633 -6.476215779350516e-05 -0.02566368039497544 0.043335587323578305 -0.04727855552876622 -0.032719849879104715 -0.049530122823908854 -0.0053537730443582576 0.03193605516701366 4.725328839355024 -0.049670810679500646 0.02874378773509888 -0.01913705089118952 -0.017342810366349888 -0.032939311109163226 -0.008060103344224804 -0.012936830311964418 -0.029509220878311135 -5.592566177113345 0.0017391237233332572 -0.013707682356730857 -6.717934542221376 -0.034617635270272076 0.011119100636934045 -6.7141653324992525 -0.008192627604115281 0.04876993541946707 0.039201487856231274 -0.01438227212638562 0.005396409023792944 8.048259838253053 3.5240445786554186 -19.260662572873787 0.013175490643452806 10.389944623012603 -0.013436939954428628 -5.624583357897183 -15.666895458722916 3.163102219254201 0.008879468690407559 -0.007874276874477263 0.027711360480301615 0.017626975420481222 4.68802274445213 0.02056930861708439 12.435278592814138 -8.2405165037038 6.92662003322508 -0.022687857937398498 46.3480251438278 -0.005827042984197019 -4.342807192079889 -14.794003529381724 -3.8477077824779036 0.014957683967126264 -0.005103262995634889 0.04872034674347794 0.03183324447548843 -10.770311646192644 -0.006897295544310866 
0.029797848234488673 0.030974213165089227 -0.003328924325736556 0.017423556822600644 0.0355679015999643 -0.013960621197180771 0.9219380635608609 4.022302196410376 -1.4833167092278703 -0.513618885594399 4.073672131218965 0.27833598876785437 -0.544631865041057 -1.4538201722304385 0.7705377110854718 -1.4065445995845656 -0.7401762322559238 -0.2983808651278643 -1.1470710648046258 12.897415150139382 1.2557092563071885 0.33874732411481634 -2.193366808237909 2.9552365206706686 0.2908020607338082 -19.357355675507662 0.1468542445995336 -4.57081361500797 1.9431644688949092 -16.334279210549678 78.5403121338291 9.557250268537612 -1.5913724278633967 -0.5644259377951392 3.1578045738244747 54.1487849820013 26.443660466007522 -0.30640304690956943 -2.8608303277967497 4.530886849545518 -0.13501873886152374 -1.582693197867535 -0.04880821335885557 -0.02972475820475087 -56.24454689395871 0.00023656984542656172 -0.015235344167107857 -56.20478333605435 -38.764292547391314 0.03687840821890455 0.025071072445037316 -0.009750668691778843 0.03239498922669356 -0.018574313067199266 -0.0294494057355543 -0.01723875861521193 0.02723148508661424 -36.73957895798475 0.04879231682199324 -0.02058331040429942 -0.011362012082098723 0.04538504026738242 -0.03536943797164931 -0.011110006319259208 -0.041911169917336746 0.0030565399879319273 -19.747560516006313 -0.0016504518683067167 0.0032969177512658992 -0.02441051558152806 -0.01543896625001624 0.015238319712350824 -0.04307945467362206 -0.04399538291477296 -0.033679244309945414 24.011936192395265 0.03633328304376977 -0.011332646372320447 28.884722118877693 -0.0034289425918421932 0.013297669496440536 28.90976735642323 -0.0017696754386526633 0.026528227710874534 7.907333033696814 1.9920764058746856 15.013612944405628 -78.79954674307066 15.866232121704417 -11.288268071152384 -0.4466699184987445 12.099177441475229 -47.13616337226931 -28.1869087257287 9.244022520183936 -4.581024982752857 -0.457214202957463 0.09746960245375338 -8.079896430433832 -0.0070959169180076 -0.0013338274826648904 44.580994738531075 0.026514116443275473 -0.0211701155374901 44.54021181125131 12.473081373655875 -0.0320746135355185 0.013386426788526556 -0.04306227931372126 -0.04252402648453171 0.02807398526538437 -0.024176697906103755 -0.0031774577147110914 -0.006346192364364618 11.142035905955423 -0.047346758940780526 0.01765792748445106 -0.017659219891164944 -0.00581959913271455 -0.01402158970895413 0.012147017235161617 -0.0491379462780881 0.02540609517044114 4.750205852866901 -0.028787541595369566 0.014358089993944226 -0.032386648202488495 -0.02784334402325775 0.024970235434255555 0.0020774095571355093 -0.005923747526228608 0.012166019116261749 -5.585325797711583 0.006778734955802684 -0.01930910937776211 -6.689433081796115 -0.015998131034173586 0.02236484123901257 -6.72665617508321 0.004458761789756723 0.006032338698963766 -0.0033616091120482403 -0.02765642158779393 -0.018994709839561714 8.001674434544462 3.5228413661216225 -19.207902400991472 0.011812096932425999 10.40637988546137 -0.016034936978746295 -5.639161397140471 -15.65088951329701 3.2355094159884663 0.044673066899404174 0.0033833537119266227 -0.026411864706499092 -0.00721741952891058 4.714352717571906 0.02806804891862827 12.470095350169005 -8.251356398254007 6.924569267072127 -0.008955581116527564 46.40802673391622 -0.03164751651988804 -4.3244582935459155 -14.718384323407488 -3.8640801091116357 -0.01654280838969096 -0.019837793029720132 -0.04477887137747883 -0.03635207332829063 -10.774856714725725 0.016147445282107507 
-0.029566779539971347 -0.01621598335417459 0.021267913210616936 -0.04713533472338707 0.024992530852437102 -0.004720472871376509 0.5817972255363497 4.017560171969945 -1.446021482065699 -0.5040274675913531 4.094022468915039 0.3199897055624414 -0.5507572161788182 -1.4172467867916752 0.7415598636097002 -1.4425871888120085 -0.7454669332160491 -0.3188617993794177 -1.1472431749384782 12.827976495082929 1.228207101620533 0.3828683899469504 -2.2978275351672024 2.9194158319687635 0.33649090577276847 -19.495547764603874 0.18862805068715913 -4.364164987207831 1.9463919548048962 -16.210003370292792 78.32532914515696 9.838471798785385 -1.7575862844660528 -1.4939037740725678 2.874420241078795 55.65580732098393 27.143969307851748 -0.32467457318887927 -3.0403346448092665 4.5146072092893075 -0.07844281257990329 -1.6029075707278164 -0.03283896758309582 0.03256114204369923 -56.19217233273192 -0.029161866450478774 0.029834165318831075 -56.20059366813215 -38.743062486571546 0.03940666607393274 0.03632573295340792 0.018539305755784562 0.019927525088453794 0.018102339754695378 0.01971789215940228 -0.014080093136422743 0.03436433422538731 -36.68907995228569 0.027851667134098552 -0.016719733826965694 -0.0021463718218535936 0.01377257674553231 0.04013419152150294 0.02312957976918784 -0.0022374343683502634 0.008423764186769938 -19.74936098076466 0.030240063032042425 -0.016991354861884432 -0.03531038873907574 -0.047591127261703045 0.04993379790299679 -0.006123616715563116 -0.011793178042603727 -0.04200530370386257 24.067347388477828 -0.012681837944418592 0.03482739944579686 28.848060385250808 0.031138728992611754 0.03960716722575917 28.848888480763666 -0.04995347080211493 0.038355440119732354 7.665753046531881 1.9147400183602326 14.998331560656286 -78.89193827042759 16.035735484740645 -10.702004680314785 -0.10180984159694043 11.264196043034238 -46.55927517813433 -28.833563364160554 9.707679190133886 -4.939715597595345 -0.45560688694064694 0.0382384782970835 -8.140254933904144 0.030177458790253058 0.02939976736597538 44.5453408215189 -0.03824898791796299 0.0022626005688611574 44.58506344627331 12.45898585447771 0.027818338974398008 0.032502150871066456 0.014426075379641542 -0.009455487638109767 0.01939524382767516 -0.007126774618743711 0.013579476058848511 -0.0010726653650713523 11.081391896318598 0.003254478104693217 0.005155051924959025 -0.02937495943140015 -0.012733567193455158 -0.00910874835752736 -0.03008131662969443 0.034332680678119815 -0.024169302266496516 4.817615093604714 0.013284750823597705 -0.024460405116043988 0.04966435379662288 -0.02030177566208846 0.0006596664796972765 -0.04014216391535133 0.0027057087628088957 0.0008259018884040379 -5.581821824227625 0.04973084051535491 -0.018109332438660277 -6.674692999346619 0.04433313732548247 0.005143334046717982 -6.7224457096506285 0.024508958453459826 0.008696924631330146 -0.02436434349767711 0.011678794048399412 0.01586589295919652 8.037476605834987 3.5322420662130667 -19.21431840767686 -0.010391376755565491 10.390799114776778 0.002998787691112687 -5.620063300295591 -15.675296544186889 3.2045313885864317 0.030140453402057905 0.028739212759311076 0.008154220997735169 -0.04155625312393224 4.709306195213014 -0.034292148698138146 12.440860090077958 -8.196672663680877 6.8943530808866305 -0.010837348128693608 46.39824105210631 0.007792136972305779 -4.350261463128363 -14.723869929181532 -3.8221243548631376 -0.01115396094222976 0.004117508157068052 -0.023314981530137925 0.019675485153448084 -10.775980029958241 0.007829953877734417 
-0.04230655618747099 -0.020638706516213256 -0.021085721010806264 -0.04922862262412686 -0.03040158586168501 0.036152128867314705 0.044432759006965486 4.0750531876114495 -1.3882348973026937 -0.46921534672555787 4.137332600921145 0.27866548248991796 -0.5709474389406469 -1.5022626283195546 0.8228047512182304 -1.5679015671969199 -0.7875567518365009 -0.2715790167198967 -1.1799710883094805 12.675897449337729 1.243172448053004 0.3968923282487186 -2.4515254550838494 2.888279557240736 0.35303019275416236 -19.61531311799304 0.14534011283924067 -3.923456072389477 1.760488563306899 -16.120261605415738 78.06399669345194 9.669451667778521 -1.8845659012804235 -2.226712281122276 3.709522030570825 55.88434448752609 27.839939931551385 -0.3210050552147982 -2.9172448942986247 4.576117543200323 -0.13612317633690518 -1.5670934378925854 -0.02673287161977446 0.005898429185544693 -56.254419969496524 -0.024815109240425008 0.0060146293440798545 -56.2822298907227 -38.78260862592926 -0.015147077144308832 -0.0019002975293940915 0.01833360013036139 -0.02846251339931826 -0.03205467850603705 -0.04852448693043191 -0.01411767638869988 0.027419889752200406 -36.738548058652874 -0.04155807471776407 -0.004581186005657687 0.023479426051762183 0.007597422153158282 0.0021054458564815004 0.00014920963415898837 0.03957158135283867 0.0015185402951113543 -19.711165480538032 0.003989821215965759 0.027342903815869367 -0.039168979573247026 -0.0078501332254091 0.0028262277295477718 0.03964314492378974 0.03756879279580552 0.014216229022401402 24.010500468744187 0.007467152707367177 0.012547396210295624 28.86239411607688 0.04008879456698045 0.019378648398317145 28.860047211866966 -0.04913877684911594 0.017702070444809603 7.142227802114787 1.8601251443156568 15.0191837386829 -79.09470154698865 15.728702089023393 -9.860371697740463 0.9230285980755 11.439833309722427 -45.181147240916346 -29.528104533759464 10.909229920776347 -5.901110010868885 -0.4323055676778761 0.029167107082085156 -8.132285841576056 -0.04434912541557719 -0.04685279269236218 44.545929977740684 0.016650873406697755 0.047154278479349984 44.52651223409274 12.423402812030108 0.018147774870809444 -0.032130312630071226 0.04680020994649483 0.04139668093873052 0.03851061048564242 -0.04293832664363405 0.038638743754281474 -0.03174114352129461 11.062273566133445 -0.036908482492570525 0.020420149995530597 -0.0009950888338639144 0.033006077264129054 -0.03221932866997081 0.03950973092419424 0.03212287494029717 0.040608956821758135 4.755323429908702 0.0015796867328666646 -0.02906202372986576 0.03368326897018549 0.04511747633257603 0.008816010021427827 -0.014619483588131123 -0.006846590880943676 -0.0207521627097563 -5.554044117521677 -0.027002924413384404 -0.04345322804067198 -6.725546697502177 0.028334891805569102 0.027834662022841003 -6.671711469067648 0.028698531260157468 0.03601882777971516 -0.021061921902663937 0.023197413632314402 0.0004541056414154187 8.044711693480952 3.510722696223907 -19.18602367905858 -0.04127833291639283 10.41487803677757 0.04875023752972989 -5.66595753195647 -15.631368860196975 3.176165036317974 0.015330031968085515 0.047765470880815154 -0.03578437428006107 0.010528361830062819 4.696492132500841 -0.04838635334380524 12.454124376864431 -8.233124399516914 6.885096650639573 0.0038588496277678634 46.386474636457386 0.023698298909350712 -4.34829436830599 -14.767614272046998 -3.8302591833647495 -0.023591729802921846 0.01358683721091644 0.016091344692082173 0.027440435273950584 -10.697297508566024 0.03128026590540803 
